<svg width="24" height="18" viewBox="0 0 24 18" fill="none" xmlns="http://www.w3.org/2000/svg">
<path d="M10.5 18C10.5 18 9 18 9 16.5C9 15 10.5 10.5 16.5 10.5C22.5 10.5 24 15 24 16.5C24 18 22.5 18 22.5 18H10.5ZM16.5 9C17.6935 9 18.8381 8.52589 19.682 7.68198C20.5259 6.83807 21 5.69347 21 4.5C21 3.30653 20.5259 2.16193 19.682 1.31802C18.8381 0.474106 17.6935 0 16.5 0C15.3065 0 14.1619 0.474106 13.318 1.31802C12.4741 2.16193 12 3.30653 12 4.5C12 5.69347 12.4741 6.83807 13.318 7.68198C14.1619 8.52589 15.3065 9 16.5 9Z" fill="#ADAFBB"/>
<path fill-rule="evenodd" clip-rule="evenodd" d="M7.824 18C7.60163 17.5318 7.49073 17.0183 7.5 16.5C7.5 14.4675 8.52 12.375 10.404 10.92C9.46364 10.6303 8.48392 10.4886 7.5 10.5C1.5 10.5 0 15 0 16.5C0 18 1.5 18 1.5 18H7.824Z" fill="#ADAFBB"/>
<path d="M6.75 9C7.74456 9 8.69839 8.60491 9.40165 7.90165C10.1049 7.19839 10.5 6.24456 10.5 5.25C10.5 4.25544 10.1049 3.30161 9.40165 2.59835C8.69839 1.89509 7.74456 1.5 6.75 1.5C5.75544 1.5 4.80161 1.89509 4.09835 2.59835C3.39509 3.30161 3 4.25544 3 5.25C3 6.24456 3.39509 7.19839 4.09835 7.90165C4.80161 8.60491 5.75544 9 6.75 9Z" fill="#ADAFBB"/>
</svg>
