<svg width="24" height="24" viewBox="0 0 24 24" fill="none" xmlns="http://www.w3.org/2000/svg">
<rect width="24" height="24" fill="white"/>
<path d="M7.5 12C7.5 11.8011 7.57902 11.6103 7.71967 11.4697C7.86032 11.329 8.05109 11.25 8.25 11.25H15V6.375C15 4.875 13.4161 3.75 12 3.75H4.875C4.17904 3.75074 3.51179 4.02755 3.01967 4.51967C2.52755 5.01179 2.25074 5.67904 2.25 6.375V17.625C2.25074 18.321 2.52755 18.9882 3.01967 19.4803C3.51179 19.9725 4.17904 20.2493 4.875 20.25H12.375C13.071 20.2493 13.7382 19.9725 14.2303 19.4803C14.7225 18.9882 14.9993 18.321 15 17.625V12.75H8.25C8.05109 12.75 7.86032 12.671 7.71967 12.5303C7.57902 12.3897 7.5 12.1989 7.5 12ZM21.5302 11.4698L17.7802 7.71984C17.6384 7.58513 17.4495 7.51114 17.254 7.51364C17.0584 7.51614 16.8715 7.59495 16.7332 7.73325C16.5949 7.87155 16.5161 8.0584 16.5136 8.25398C16.5111 8.44955 16.5851 8.63836 16.7198 8.78016L19.1892 11.25H15V12.75H19.1892L16.7198 15.2198C16.6473 15.2888 16.5892 15.3716 16.5492 15.4633C16.5091 15.555 16.4878 15.6539 16.4865 15.754C16.4852 15.8541 16.504 15.9534 16.5417 16.0461C16.5794 16.1389 16.6353 16.2231 16.7061 16.2939C16.7769 16.3647 16.8611 16.4206 16.9539 16.4583C17.0466 16.496 17.1459 16.5148 17.246 16.5135C17.3461 16.5122 17.445 16.4909 17.5367 16.4508C17.6284 16.4108 17.7112 16.3527 17.7802 16.2802L21.5302 12.5302C21.6707 12.3895 21.7497 12.1988 21.7497 12C21.7497 11.8012 21.6707 11.6105 21.5302 11.4698V11.4698Z" fill="#FF6421"/>
</svg>
