<svg width="16" height="16" viewBox="0 0 16 16" fill="none" xmlns="http://www.w3.org/2000/svg">
<g clip-path="url(#clip0_253_903)">
<circle cx="8" cy="8" r="8" fill="white"/>
<path fill-rule="evenodd" clip-rule="evenodd" d="M8 0C3.58182 0 0 3.58182 0 8C0 12.4182 3.58182 16 8 16C12.4182 16 16 12.4182 16 8C16 3.58182 12.4182 0 8 0ZM8.72727 4.36364C8.72727 4.17075 8.65065 3.98577 8.51426 3.84938C8.37787 3.71299 8.19288 3.63636 8 3.63636C7.80712 3.63636 7.62213 3.71299 7.48574 3.84938C7.34935 3.98577 7.27273 4.17075 7.27273 4.36364V8.72727C7.27273 8.92016 7.34935 9.10514 7.48574 9.24153C7.62213 9.37792 7.80712 9.45455 8 9.45455C8.19288 9.45455 8.37787 9.37792 8.51426 9.24153C8.65065 9.10514 8.72727 8.92016 8.72727 8.72727V4.36364ZM8.72727 11.2727C8.72727 11.0798 8.65065 10.8949 8.51426 10.7585C8.37787 10.6221 8.19288 10.5455 8 10.5455C7.80712 10.5455 7.62213 10.6221 7.48574 10.7585C7.34935 10.8949 7.27273 11.0798 7.27273 11.2727V11.6364C7.27273 11.8292 7.34935 12.0142 7.48574 12.1506C7.62213 12.287 7.80712 12.3636 8 12.3636C8.19288 12.3636 8.37787 12.287 8.51426 12.1506C8.65065 12.0142 8.72727 11.8292 8.72727 11.6364V11.2727Z" fill="#FF5F00"/>
</g>
<defs>
<clipPath id="clip0_253_903">
<rect width="16" height="16" fill="white"/>
</clipPath>
</defs>
</svg>
