<svg width="16" height="16" viewBox="0 0 16 16" fill="none" xmlns="http://www.w3.org/2000/svg">
<g clip-path="url(#clip0_251_896)">
<circle cx="8" cy="8" r="8" fill="white"/>
<path d="M16 8C16 10.1217 15.1571 12.1566 13.6569 13.6569C12.1566 15.1571 10.1217 16 8 16C5.87827 16 3.84344 15.1571 2.34315 13.6569C0.842855 12.1566 0 10.1217 0 8C0 5.87827 0.842855 3.84344 2.34315 2.34315C3.84344 0.842855 5.87827 0 8 0C10.1217 0 12.1566 0.842855 13.6569 2.34315C15.1571 3.84344 16 5.87827 16 8ZM9.283 4.002H7.971L6.072 5.385V6.656L7.906 5.338H7.971V12H9.283V4.002Z" fill="#FF5F00"/>
</g>
<defs>
<clipPath id="clip0_251_896">
<rect width="16" height="16" fill="white"/>
</clipPath>
</defs>
</svg>
