<svg width="16" height="16" viewBox="0 0 16 16" fill="none" xmlns="http://www.w3.org/2000/svg">
<g clip-path="url(#clip0_251_898)">
<circle cx="8" cy="8" r="8" fill="white"/>
<path d="M16 8C16 10.1217 15.1571 12.1566 13.6569 13.6569C12.1566 15.1571 10.1217 16 8 16C5.87827 16 3.84344 15.1571 2.34315 13.6569C0.842855 12.1566 0 10.1217 0 8C0 5.87827 0.842855 3.84344 2.34315 2.34315C3.84344 0.842855 5.87827 0 8 0C10.1217 0 12.1566 0.842855 13.6569 2.34315C15.1571 3.84344 16 5.87827 16 8ZM6.646 6.24C6.646 5.549 7.139 4.934 7.982 4.934C8.738 4.934 9.295 5.426 9.295 6.17C9.295 6.867 8.826 7.4 8.393 7.875L5.422 11.168V12H10.766V10.893H7.268V10.816L9.242 8.596L9.338 8.489C10.026 7.726 10.625 7.061 10.625 6.059C10.625 4.793 9.594 3.844 8.012 3.844C6.254 3.844 5.375 5.034 5.375 6.246V6.311H6.646V6.241V6.24Z" fill="#FF5F00"/>
</g>
<defs>
<clipPath id="clip0_251_898">
<rect width="16" height="16" fill="white"/>
</clipPath>
</defs>
</svg>
