<svg width="16" height="16" viewBox="0 0 16 16" fill="none" xmlns="http://www.w3.org/2000/svg">
<g clip-path="url(#clip0_251_900)">
<circle cx="8" cy="8" r="8" fill="white"/>
<path d="M16 8C16 10.1217 15.1571 12.1566 13.6569 13.6569C12.1566 15.1571 10.1217 16 8 16C5.87827 16 3.84344 15.1571 2.34315 13.6569C0.842855 12.1566 0 10.1217 0 8C0 5.87827 0.842855 3.84344 2.34315 2.34315C3.84344 0.842855 5.87827 0 8 0C10.1217 0 12.1566 0.842855 13.6569 2.34315C15.1571 3.84344 16 5.87827 16 8ZM7.918 8.414C8.838 8.414 9.453 8.954 9.459 9.732C9.471 10.523 8.844 11.092 7.871 11.086C7.01 11.08 6.389 10.617 6.331 10.02H5.104C5.151 11.197 6.154 12.164 7.858 12.164C9.511 12.164 10.812 11.227 10.788 9.768C10.765 8.49 9.757 7.922 9.054 7.852V7.782C9.651 7.682 10.559 7.043 10.536 5.906C10.506 4.729 9.493 3.832 7.899 3.844C6.224 3.85 5.309 4.828 5.274 5.964H6.522C6.558 5.408 7.079 4.91 7.87 4.91C8.655 4.91 9.218 5.396 9.218 6.105C9.224 6.82 8.655 7.342 7.876 7.342H7.038V8.414H7.917H7.918Z" fill="#FF5F00"/>
</g>
<defs>
<clipPath id="clip0_251_900">
<rect width="16" height="16" fill="white"/>
</clipPath>
</defs>
</svg>
