<svg width="16" height="16" viewBox="0 0 16 16" fill="none" xmlns="http://www.w3.org/2000/svg">
<g clip-path="url(#clip0_251_902)">
<circle cx="8" cy="8" r="8" fill="white"/>
<path d="M16 8C16 10.1217 15.1571 12.1566 13.6569 13.6569C12.1566 15.1571 10.1217 16 8 16C5.87827 16 3.84344 15.1571 2.34315 13.6569C0.842855 12.1566 0 10.1217 0 8C0 5.87827 0.842855 3.84344 2.34315 2.34315C3.84344 0.842855 5.87827 0 8 0C10.1217 0 12.1566 0.842855 13.6569 2.34315C15.1571 3.84344 16 5.87827 16 8V8ZM7.519 5.057C6.633 6.475 5.747 7.895 4.977 9.322V10.442H8.85V12H10.11V10.441H11.117V9.334H10.11V4.002H8.176C7.958 4.354 7.738 4.705 7.519 5.057V5.057ZM6.225 9.281V9.334H8.85V5.063H8.785C7.918 6.393 6.998 7.869 6.225 9.281V9.281Z" fill="#FF5F00"/>
</g>
<defs>
<clipPath id="clip0_251_902">
<rect width="16" height="16" fill="white"/>
</clipPath>
</defs>
</svg>
