<svg width="24" height="24" viewBox="0 0 24 24" fill="none" xmlns="http://www.w3.org/2000/svg">
<path d="M20.347 9.24L21.194 7.974C21.2668 7.86614 21.3603 7.7738 21.469 7.70231C21.5777 7.63082 21.6996 7.58161 21.8274 7.55752C21.9553 7.53343 22.0867 7.53495 22.214 7.56198C22.3413 7.58901 22.4619 7.64102 22.569 7.715C23.025 8.025 23.149 8.645 22.846 9.098L20.65 12.38C20.5772 12.4879 20.4837 12.5802 20.375 12.6517C20.2663 12.7232 20.1444 12.7724 20.0166 12.7965C19.8887 12.8206 19.7573 12.8191 19.63 12.792C19.5027 12.765 19.3821 12.713 19.275 12.639L15.97 10.393C15.7511 10.2455 15.5993 10.0177 15.5474 9.75894C15.4956 9.50018 15.5479 9.23142 15.693 9.011C15.7657 8.90306 15.8591 8.81063 15.9678 8.73904C16.0765 8.66746 16.1983 8.61815 16.3262 8.59397C16.4541 8.56979 16.5855 8.57121 16.7128 8.59817C16.8402 8.62512 16.9609 8.67707 17.068 8.751L18.412 9.666C17.428 6.386 14.42 4 10.863 4C6.506 4 2.973 7.582 2.973 12C2.973 16.418 6.506 20 10.863 20C11.408 20 11.85 20.448 11.85 21C11.85 21.552 11.408 22 10.863 22C5.416 22 1 17.523 1 12C1 6.477 5.416 2 10.863 2C15.367 2 19.165 5.06 20.347 9.24Z" fill="#ADAFBB"/>
</svg>
