<svg width="32" height="32" viewBox="0 0 32 32" fill="none" xmlns="http://www.w3.org/2000/svg">
<rect width="32" height="32" rx="8" fill="#D9D9D9"/>
<path d="M10.375 15.375H22.875C23.0408 15.375 23.1997 15.4408 23.3169 15.5581C23.4342 15.6753 23.5 15.8342 23.5 16C23.5 16.1658 23.4342 16.3247 23.3169 16.4419C23.1997 16.5592 23.0408 16.625 22.875 16.625H10.375C10.2092 16.625 10.0503 16.5592 9.93306 16.4419C9.81585 16.3247 9.75 16.1658 9.75 16C9.75 15.8342 9.81585 15.6753 9.93306 15.5581C10.0503 15.4408 10.2092 15.375 10.375 15.375Z" fill="black"/>
<path d="M10.6338 16L15.8175 21.1825C15.9349 21.2999 16.0008 21.459 16.0008 21.625C16.0008 21.791 15.9349 21.9501 15.8175 22.0675C15.7002 22.1849 15.541 22.2508 15.375 22.2508C15.209 22.2508 15.0499 22.1849 14.9325 22.0675L9.30752 16.4425C9.24931 16.3844 9.20314 16.3155 9.17163 16.2395C9.14012 16.1636 9.1239 16.0822 9.1239 16C9.1239 15.9178 9.14012 15.8364 9.17163 15.7605C9.20314 15.6845 9.24931 15.6156 9.30752 15.5575L14.9325 9.9325C15.0499 9.81514 15.209 9.74921 15.375 9.74921C15.541 9.74921 15.7002 9.81514 15.8175 9.9325C15.9349 10.0499 16.0008 10.209 16.0008 10.375C16.0008 10.541 15.9349 10.7001 15.8175 10.8175L10.6338 16Z" fill="black"/>
</svg>
