<svg width="16" height="16" viewBox="0 0 16 16" fill="none" xmlns="http://www.w3.org/2000/svg">
<g clip-path="url(#clip0_2_248)">
<path d="M2.00001 9.49231C1.99835 9.59367 2.02754 9.69313 2.08371 9.77751C2.13988 9.8619 2.22037 9.92722 2.31451 9.96481L7.11501 11.8853L9.03551 16.6863C9.0726 16.7792 9.13669 16.8588 9.2195 16.9148C9.3023 16.9709 9.40001 17.0008 9.50001 17.0008H9.50801C9.60927 16.9992 9.70767 16.9669 9.79017 16.9082C9.87267 16.8494 9.93538 16.767 9.97001 16.6718L13.97 5.67181C14.0028 5.58233 14.0092 5.48535 13.9887 5.39229C13.9682 5.29924 13.9215 5.21399 13.8541 5.14658C13.7868 5.07918 13.7016 5.03242 13.6085 5.01182C13.5155 4.99122 13.4185 4.99764 13.329 5.03031L2.32901 9.03031C2.23379 9.06503 2.15135 9.12783 2.09261 9.21042C2.03386 9.293 2.00157 9.39148 2.00001 9.49281V9.49231Z" fill="black"/>
</g>
<defs>
<clipPath id="clip0_2_248">
<rect width="16" height="16" fill="white"/>
</clipPath>
</defs>
</svg>
