<svg width="25" height="24" viewBox="0 0 25 24" fill="none" xmlns="http://www.w3.org/2000/svg">
<path d="M3.8485 2.37686L21.9085 11.0143C22.091 11.1015 22.2452 11.2385 22.3531 11.4096C22.461 11.5807 22.5183 11.7789 22.5183 11.9811C22.5183 12.1834 22.461 12.3816 22.3531 12.5527C22.2452 12.7238 22.091 12.8608 21.9085 12.948L3.8485 21.5854C3.66336 21.6741 3.45664 21.7077 3.25294 21.6823C3.04924 21.6569 2.85713 21.5735 2.69947 21.442C2.54181 21.3105 2.42524 21.1365 2.36363 20.9407C2.30202 20.7449 2.29796 20.5355 2.35193 20.3374L4.15879 13.7134C4.1809 13.6323 4.22643 13.5594 4.28968 13.5039C4.35294 13.4484 4.43113 13.4128 4.5145 13.4014L13.2659 12.2126C13.3025 12.2074 13.3371 12.1928 13.3664 12.1703C13.3957 12.1477 13.4187 12.118 13.4331 12.084L13.4485 12.0309C13.4553 11.983 13.4456 11.9343 13.4212 11.8926C13.3968 11.8509 13.359 11.8187 13.3139 11.8011L13.2668 11.7883L4.52393 10.5994C4.44071 10.5879 4.36271 10.5522 4.29962 10.4968C4.23653 10.4413 4.19113 10.3685 4.16907 10.2874L2.35193 3.62572C2.29774 3.4276 2.30163 3.21808 2.36315 3.02212C2.42468 2.82615 2.54123 2.652 2.69893 2.52041C2.85663 2.38881 3.04883 2.30531 3.25264 2.27986C3.45645 2.25441 3.66328 2.28808 3.8485 2.37686Z" fill="white"/>
</svg>
