<svg width="24" height="24" viewBox="0 0 24 24" fill="none" xmlns="http://www.w3.org/2000/svg">
<path fill-rule="evenodd" clip-rule="evenodd" d="M12 1C5.925 1 1 5.925 1 12C1 18.075 5.925 23 12 23C18.075 23 23 18.075 23 12C23 5.925 18.075 1 12 1ZM8.707 9.793C8.5184 9.61084 8.2658 9.51005 8.0036 9.51233C7.7414 9.5146 7.49059 9.61977 7.30518 9.80518C7.11977 9.99059 7.0146 10.2414 7.01233 10.5036C7.01005 10.7658 7.11084 11.0184 7.293 11.207L11.293 15.207C11.4805 15.3945 11.7348 15.4998 12 15.4998C12.2652 15.4998 12.5195 15.3945 12.707 15.207L16.707 11.207C16.8892 11.0184 16.99 10.7658 16.9877 10.5036C16.9854 10.2414 16.8802 9.99059 16.6948 9.80518C16.5094 9.61977 16.2586 9.5146 15.9964 9.51233C15.7342 9.51005 15.4816 9.61084 15.293 9.793L12 13.086L8.707 9.793Z" fill="white"/>
</svg>
