<svg width="24" height="24" viewBox="0 0 24 24" fill="none" xmlns="http://www.w3.org/2000/svg">
<path d="M16.972 6.251C16.7424 6.12325 16.4899 6.04201 16.2289 6.01193C15.9679 5.98184 15.7036 6.0035 15.4509 6.07567C15.1983 6.14783 14.9624 6.26908 14.7567 6.43249C14.551 6.5959 14.3795 6.79826 14.252 7.028L10.539 13.71L8.41401 11.585C8.22952 11.394 8.00883 11.2416 7.76482 11.1368C7.52081 11.032 7.25837 10.9768 6.99281 10.9745C6.72725 10.9722 6.46389 11.0228 6.2181 11.1234C5.97231 11.2239 5.74901 11.3724 5.56122 11.5602C5.37343 11.748 5.22493 11.9713 5.12437 12.2171C5.0238 12.4629 4.9732 12.7262 4.97551 12.9918C4.97782 13.2574 5.03299 13.5198 5.13781 13.7638C5.24263 14.0078 5.39499 14.2285 5.58601 14.413L9.58601 18.413C9.96401 18.792 10.474 19 11 19L11.277 18.98C11.5836 18.9371 11.876 18.8237 12.1312 18.6486C12.3865 18.4735 12.5976 18.2415 12.748 17.971L17.748 8.971C17.8757 8.74145 17.9569 8.48901 17.9869 8.22808C18.017 7.96715 17.9954 7.70286 17.9234 7.45028C17.8513 7.1977 17.7302 6.96179 17.567 6.75602C17.4037 6.55024 17.2016 6.37864 16.972 6.251V6.251Z" fill="white"/>
</svg>
