<svg width="24" height="24" viewBox="0 0 24 24" fill="none" xmlns="http://www.w3.org/2000/svg">
<path d="M17 13H7C6.73478 13 6.48043 12.8946 6.29289 12.7071C6.10536 12.5196 6 12.2652 6 12C6 11.7348 6.10536 11.4804 6.29289 11.2929C6.48043 11.1054 6.73478 11 7 11H17C17.2652 11 17.5196 11.1054 17.7071 11.2929C17.8946 11.4804 18 11.7348 18 12C18 12.2652 17.8946 12.5196 17.7071 12.7071C17.5196 12.8946 17.2652 13 17 13Z" fill="white"/>
<path d="M12 2C10.1071 1.99972 8.25305 2.53668 6.65329 3.54846C5.05352 4.56025 3.77377 6.0053 2.9628 7.71564C2.15182 9.42599 1.84293 11.3314 2.07203 13.2103C2.30113 15.0893 3.05881 16.8646 4.257 18.33L2.293 20.293C2.15319 20.4329 2.05798 20.611 2.01942 20.805C1.98085 20.9989 2.00065 21.2 2.07632 21.3827C2.15199 21.5654 2.28013 21.7215 2.44454 21.8314C2.60895 21.9413 2.80225 22 3 22H12C14.6522 22 17.1957 20.9464 19.0711 19.0711C20.9464 17.1957 22 14.6522 22 12C22 9.34784 20.9464 6.8043 19.0711 4.92893C17.1957 3.05357 14.6522 2 12 2ZM9 7H15C15.2652 7 15.5196 7.10536 15.7071 7.29289C15.8946 7.48043 16 7.73478 16 8C16 8.26522 15.8946 8.51957 15.7071 8.70711C15.5196 8.89464 15.2652 9 15 9H9C8.73478 9 8.48043 8.89464 8.29289 8.70711C8.10536 8.51957 8 8.26522 8 8C8 7.73478 8.10536 7.48043 8.29289 7.29289C8.48043 7.10536 8.73478 7 9 7ZM15 17H9C8.73478 17 8.48043 16.8946 8.29289 16.7071C8.10536 16.5196 8 16.2652 8 16C8 15.7348 8.10536 15.4804 8.29289 15.2929C8.48043 15.1054 8.73478 15 9 15H15C15.2652 15 15.5196 15.1054 15.7071 15.2929C15.8946 15.4804 16 15.7348 16 16C16 16.2652 15.8946 16.5196 15.7071 16.7071C15.5196 16.8946 15.2652 17 15 17ZM17 13H7C6.73478 13 6.48043 12.8946 6.29289 12.7071C6.10536 12.5196 6 12.2652 6 12C6 11.7348 6.10536 11.4804 6.29289 11.2929C6.48043 11.1054 6.73478 11 7 11H17C17.2652 11 17.5196 11.1054 17.7071 11.2929C17.8946 11.4804 18 11.7348 18 12C18 12.2652 17.8946 12.5196 17.7071 12.7071C17.5196 12.8946 17.2652 13 17 13Z" fill="#101010" fill-opacity="0.5"/>
<path d="M15 17H9C8.73478 17 8.48043 16.8946 8.29289 16.7071C8.10536 16.5196 8 16.2652 8 16C8 15.7348 8.10536 15.4804 8.29289 15.2929C8.48043 15.1054 8.73478 15 9 15H15C15.2652 15 15.5196 15.1054 15.7071 15.2929C15.8946 15.4804 16 15.7348 16 16C16 16.2652 15.8946 16.5196 15.7071 16.7071C15.5196 16.8946 15.2652 17 15 17ZM15 9H9C8.73478 9 8.48043 8.89464 8.29289 8.70711C8.10536 8.51957 8 8.26522 8 8C8 7.73478 8.10536 7.48043 8.29289 7.29289C8.48043 7.10536 8.73478 7 9 7H15C15.2652 7 15.5196 7.10536 15.7071 7.29289C15.8946 7.48043 16 7.73478 16 8C16 8.26522 15.8946 8.51957 15.7071 8.70711C15.5196 8.89464 15.2652 9 15 9Z" fill="white"/>
</svg>
