<svg width="30" height="24" viewBox="0 0 30 24" fill="none" xmlns="http://www.w3.org/2000/svg">
<path d="M9 10C11.2094 10 13 8.20906 13 6C13 3.79094 11.2094 2 9 2C6.79062 2 5 3.79094 5 6C5 8.20906 6.79062 10 9 10ZM10.5844 11.5H7.41562C4.42406 11.5 2 13.925 2 16.9156C2 17.5156 2.485 18 3.08312 18H14.9156C15.5156 18 16 17.5156 16 16.9156C16 13.925 13.575 11.5 10.5844 11.5ZM16.9719 12H14.6641C16.1 13.1781 17 14.9406 17 16.9156C17 17.3156 16.8812 17.6844 16.6875 18H21C21.5531 18 22 17.55 22 16.9719C22 14.2375 19.7625 12 16.9719 12ZM15.5 10C17.4344 10 19 8.43437 19 6.5C19 4.56562 17.4344 3 15.5 3C14.7153 3 13.9987 3.26734 13.415 3.70344C13.775 4.39469 14 5.16875 14 6C14 7.11 13.6272 8.12938 13.0128 8.95969C13.6469 9.6 14.525 10 15.5 10Z" fill="black" fill-opacity="0.5"/>
</svg>
